<svg width="50" height="51" xmlns="http://www.w3.org/2000/svg" xmlns:xlink="http://www.w3.org/1999/xlink" xml:space="preserve" overflow="hidden"><g transform="translate(-751 -658)"><path d="M10.8854 30 20.8854 20 15.3125 20C17.1354 16.4583 20.8333 14.0104 25.1042 14.0104 27.8646 14.0104 30.4167 15.0521 32.3437 16.7708L42.5 16.7708C39.4271 10.2083 32.7604 5.72917 25.1042 5.72917 16.1979 5.72917 8.69792 11.7708 6.51042 20L0.885417 20 10.8854 30Z" fill="#333F50" transform="matrix(1 0 0 1.02 751 658)"/><path d="M49.2708 30 39.2708 20 29.2708 30 34.8958 30C33.0729 33.5417 29.375 35.9896 25.1042 35.9896 22.3438 35.9896 19.7917 34.9479 17.8646 33.2292L7.65625 33.2292C10.7812 39.7917 17.3958 44.2708 25.1042 44.2708 34.0104 44.2708 41.5104 38.2292 43.6979 30L49.2708 30Z" fill="#333F50" transform="matrix(1 0 0 1.02 751 658)"/></g></svg>