<svg width="96" height="96" xmlns="http://www.w3.org/2000/svg" xmlns:xlink="http://www.w3.org/1999/xlink" xml:space="preserve" overflow="hidden"><g transform="translate(-338 -350)"><path d="M386 360C365 360 348 377 348 398 348 419 365 436 386 436 407 436 424 419 424 398 424 377 407 360 386 360ZM384 370C386.8 370 389 372.2 389 375 389 377.8 386.8 380 384 380 381.2 380 379 377.8 379 375 379 372.2 381.2 370 384 370ZM396 426 376 426 376 420 383 420 383 390 377 390 377 384 389 384 389 390 389 420 396 420 396 426Z" fill="#333F50"/></g></svg>